<svg xmlns="http://www.w3.org/2000/svg" xmlns:xlink="http://www.w3.org/1999/xlink" width="512" height="512"><defs><linearGradient id="a"><stop offset="0" stop-color="#4e748b"/><stop offset="1" stop-color="#393e3f"/></linearGradient><linearGradient xlink:href="#a" id="b" y1="17" x2="0" y2="494.933" gradientUnits="userSpaceOnUse"/></defs><rect rx="54.459" ry="54.459" y="8.533" x="72.769" height="494.933" width="366.463" fill="url(#b)"/><path d="M146.504 126.9c-17.596 0-31.865 14.267-31.865 31.826 0 17.615 14.27 31.868 31.83 31.868 17.596 0 31.864-14.234 31.864-31.83 0-17.597-14.27-31.86-31.83-31.86zm107.287 0c-17.593 0-31.864 14.267-31.864 31.826 0 17.615 14.27 31.868 31.827 31.868 17.597 0 31.865-14.234 31.865-31.83 0-17.597-14.268-31.86-31.827-31.86zm107.287 0c-17.576 0-31.865 14.267-31.865 31.826 0 17.615 14.305 31.868 31.83 31.868 17.595 0 31.862-14.234 31.862-31.83 0-17.597-14.267-31.86-31.827-31.86zm-214.573 89.405c-17.596 0-31.865 14.268-31.865 31.83 0 17.61 14.27 31.825 31.83 31.825 17.596 0 31.864-14.218 31.864-31.83 0-17.558-14.27-31.827-31.83-31.827zm107.287 0c-17.593 0-31.864 14.268-31.864 31.83 0 17.61 14.27 31.825 31.827 31.825 17.597 0 31.865-14.218 31.865-31.83 0-17.558-14.268-31.827-31.827-31.827zm107.287 0c-17.576 0-31.865 14.268-31.865 31.83 0 17.61 14.305 31.825 31.83 31.825 17.595 0 31.862-14.218 31.862-31.83 0-17.558-14.267-31.827-31.827-31.827zM146.504 305.71c-17.596 0-31.865 14.27-31.865 31.83 0 17.557 14.27 31.827 31.83 31.827 17.596 0 31.864-14.234 31.864-31.83 0-17.593-14.27-31.826-31.83-31.826zm107.287 0c-17.593 0-31.864 14.27-31.864 31.83 0 17.557 14.27 31.827 31.827 31.827 17.597 0 31.865-14.234 31.865-31.83 0-17.593-14.268-31.826-31.827-31.826zm107.287 0c-17.576 0-31.865 14.27-31.865 31.83 0 17.557 14.305 31.827 31.83 31.827 17.595 0 31.862-14.234 31.862-31.83 0-17.593-14.267-31.826-31.827-31.826zm-214.573 89.406c-17.596 0-31.865 14.267-31.865 31.826 0 17.56 14.27 31.832 31.83 31.832 17.596 0 31.864-14.235 31.864-31.83 0-17.592-14.27-31.826-31.83-31.826zm107.287 0c-17.593 0-31.864 14.267-31.864 31.826 0 17.56 14.27 31.832 31.827 31.832 17.597 0 31.865-14.235 31.865-31.83 0-17.592-14.268-31.826-31.827-31.826zm107.287 0c-17.576 0-31.865 14.267-31.865 31.826 0 17.56 14.305 31.832 31.83 31.832 17.595 0 31.862-14.235 31.862-31.83 0-17.592-14.267-31.826-31.827-31.826zm32.668-341.89H118.252c-6.312 0-11.445 8.05-11.445 17.97 0 9.925 5.133 18.008 11.445 18.008h275.496c6.33 0 11.445-8.05 11.445-18.007 0-9.923-5.133-17.97-11.445-17.97z" fill="#bcc6c5"/></svg>